<svg width="79" height="26" viewBox="0 0 79 26" fill="none" xmlns="http://www.w3.org/2000/svg">
<g clip-path="url(#clip0_909_398)">
<path d="M53.1769 12.5175C52.9936 12.5119 52.8127 12.4738 52.6427 12.4051C52.4417 12.3292 52.2532 12.224 52.0833 12.0928C51.9114 11.9612 51.7617 11.8031 51.6399 11.6244C51.5248 11.468 51.4613 11.2797 51.4581 11.0858C51.4602 10.6276 51.6059 10.1816 51.8749 9.81011C52.1523 9.40969 52.4526 9.02548 52.7743 8.65938C53.0949 8.29194 53.3942 7.92762 53.6721 7.56642C53.934 7.25335 54.081 6.86067 54.0888 6.45316C54.0891 6.17758 54.0126 5.90733 53.8679 5.67247C53.7206 5.42994 53.4558 5.30867 53.0735 5.30867C52.5218 5.32586 51.9831 5.48045 51.5067 5.75835C50.9386 6.06686 50.4204 6.45901 49.9696 6.92157C49.5069 7.38686 49.1156 7.91773 48.8086 8.497C48.5203 9.01395 48.3637 9.59352 48.3527 10.1848C48.3298 10.6549 48.4885 11.1159 48.7961 11.473C49.1084 11.8123 49.48 12.0922 49.8929 12.2989C50.3366 12.5278 50.7983 12.7204 51.2732 12.8751C51.7188 13.0165 52.1543 13.1876 52.5768 13.3872C53.2031 13.6783 53.7457 14.1219 54.1547 14.6769C54.5464 15.2109 54.6623 15.8526 54.5072 16.6021C54.3597 17.2847 54.046 17.9206 53.5937 18.4539C53.1421 18.9879 52.6053 19.4442 52.005 19.8045C51.3893 20.1709 50.7216 20.4426 50.0245 20.6101C49.3342 20.7822 48.6255 20.8703 47.9139 20.8725C47.3559 20.875 46.8012 20.7864 46.2719 20.6101C45.779 20.4504 45.3227 20.1952 44.9291 19.8591C44.5297 19.5159 44.2359 19.0671 44.0814 18.5646C43.927 18.062 43.9183 17.5262 44.0564 17.019C44.1909 16.4456 44.4486 15.9082 44.8116 15.4436C44.8942 15.3282 44.9859 15.2196 45.0858 15.1188C45.1986 15.0032 45.324 14.8861 45.4634 14.769C45.5989 14.6548 45.7484 14.5583 45.9084 14.4817C46.0458 14.4115 46.1974 14.3731 46.3518 14.3693C46.5461 14.3741 46.7369 14.421 46.9112 14.5067C47.1135 14.5987 47.3031 14.7162 47.4752 14.8565C47.6437 14.9957 47.7966 15.1528 47.9312 15.3249C48.0467 15.4654 48.1387 15.6236 48.2038 15.7933C48.2212 15.8755 48.2301 15.9592 48.2304 16.0431C48.2304 16.1274 48.1787 16.168 48.0738 16.168C47.7946 16.1725 47.5196 16.2358 47.2668 16.3538C46.9915 16.4762 46.7364 16.6394 46.51 16.8379C46.2892 17.0309 46.1005 17.2575 45.9507 17.5093C45.8071 17.7401 45.7302 18.0059 45.7282 18.2774C45.7195 18.4836 45.7844 18.6861 45.9115 18.8489C46.0312 19.0018 46.186 19.1239 46.3628 19.2049C46.5543 19.29 46.7552 19.3524 46.9613 19.3907C47.1631 19.4303 47.3682 19.4512 47.5739 19.4532C48.0179 19.4447 48.4594 19.386 48.8901 19.2783C49.3806 19.1638 49.8544 18.9875 50.3002 18.7537C50.7234 18.5363 51.1034 18.2443 51.4221 17.8918C51.7227 17.5601 51.8857 17.127 51.878 16.6802C51.878 16.0806 51.5391 15.5648 50.8612 15.1328C50.3352 14.8141 49.7863 14.5344 49.2191 14.2959C48.6675 14.0654 48.132 13.7983 47.6162 13.4965C47.1288 13.2107 46.6964 12.8406 46.3393 12.4036C45.9583 11.911 45.7195 11.3242 45.6483 10.7063C45.5474 9.88695 45.6647 9.05552 45.9883 8.29558C46.3246 7.47769 46.8156 6.73187 47.4345 6.09873C48.0718 5.43888 48.8221 4.89747 49.65 4.49988C50.4728 4.09644 51.3778 3.88702 52.2948 3.88782C52.9529 3.87242 53.6052 4.0143 54.197 4.30158C54.7145 4.55369 55.1222 4.98495 55.3439 5.51477C55.5269 5.65973 55.6757 5.84312 55.7795 6.05189C55.8765 6.23345 55.9301 6.4349 55.9361 6.64052C55.9244 7.13742 55.7805 7.62231 55.5194 8.04576C55.2415 8.52979 54.9417 9.01329 54.62 9.49628C54.2983 9.97926 53.999 10.4628 53.7222 10.9468C53.461 11.3702 53.3172 11.8551 53.3054 12.352C53.3086 12.4598 53.2725 12.5175 53.1769 12.5175Z" fill="white"/>
<path d="M55.3094 18.3211C55.3421 18.1667 55.3641 18.0102 55.3752 17.8527C55.385 17.6952 55.4064 17.5387 55.4395 17.3843C55.6403 16.1522 55.9108 14.9324 56.2495 13.7307C56.5642 12.5814 56.9648 11.4571 57.4482 10.3675C57.5531 10.1505 57.6832 10.0412 57.8383 10.0412C57.9848 10.0453 58.1299 10.0706 58.2692 10.1161C58.4362 10.1666 58.5991 10.2298 58.7565 10.3051C58.9041 10.3763 59.0474 10.4561 59.1858 10.5439C59.3158 10.6267 59.4239 10.7001 59.5117 10.7688C59.5428 10.7855 59.5699 10.8087 59.5911 10.8369C59.6124 10.865 59.6272 10.8975 59.6347 10.9319C59.6421 10.9663 59.642 11.002 59.6343 11.0363C59.6266 11.0707 59.6115 11.103 59.59 11.131C59.5091 11.2586 59.4479 11.3975 59.4083 11.5432C59.1816 12.0949 58.9685 12.6789 58.769 13.2951C58.5695 13.9113 58.382 14.528 58.2065 15.1453C58.0326 15.7699 57.8822 16.3585 57.7505 16.9346C57.6189 17.5108 57.5124 18.0276 57.4246 18.4726C57.3902 18.6553 57.4168 18.7568 57.503 18.7724C57.5574 18.7764 57.6119 18.7671 57.6619 18.7453C57.7118 18.7235 57.7557 18.69 57.7897 18.6475C58.2126 18.2358 58.5883 17.7786 58.91 17.2844C59.2593 16.7574 59.5774 16.2105 59.8626 15.6465C60.1489 15.0792 60.41 14.5202 60.6461 13.9696C60.8821 13.419 61.0879 12.9261 61.2634 12.491C61.3061 12.4013 61.3802 12.3302 61.4718 12.2911C61.5559 12.2583 61.6493 12.2583 61.7335 12.2911C61.818 12.3235 61.8877 12.3858 61.9293 12.466C61.9505 12.5084 61.9625 12.5548 61.9647 12.6021C61.9668 12.6494 61.9591 12.6966 61.9418 12.7408C61.8196 13.025 61.6629 13.4002 61.4718 13.8665C61.2806 14.335 61.055 14.8393 60.7949 15.3795C60.5348 15.9198 60.2481 16.4725 59.9347 17.019C59.6426 17.539 59.3115 18.0364 58.9445 18.5069C58.6318 18.9152 58.2685 19.2825 57.8634 19.5999C57.5514 19.8597 57.1618 20.009 56.7556 20.0246C56.5414 20.0256 56.3304 19.9718 56.143 19.8685C55.9603 19.7689 55.8003 19.6328 55.6729 19.4688C55.5437 19.3045 55.4464 19.1175 55.3862 18.9176C55.3224 18.7255 55.2964 18.523 55.3094 18.3211ZM59.5054 5.53974C59.7477 5.07341 59.9567 4.83972 60.1321 4.83868C60.3704 4.88667 60.6023 4.96212 60.8231 5.06352C61.1203 5.18484 61.4043 5.33603 61.6708 5.51476C62.0343 5.7474 62.0703 6.08934 61.7742 6.54058C61.652 6.72378 61.4828 6.9736 61.2665 7.29004C61.0503 7.60648 60.82 7.91511 60.5756 8.21593C60.3531 8.49046 60.1139 8.75118 59.8595 8.99662C59.6245 9.22302 59.4286 9.33544 59.272 9.33544C58.9069 9.35261 58.6938 9.18867 58.6342 8.84673C58.5758 8.45452 58.5977 8.05459 58.6985 7.67102C58.8035 7.23146 58.9428 6.80077 59.1153 6.38288C59.2312 6.09482 59.3631 5.81335 59.5101 5.53974H59.5054Z" fill="white"/>
<path d="M64.2011 17.2704C63.8529 17.969 63.4147 18.6194 62.8975 19.2049C62.4118 19.7483 61.8817 20.0194 61.3072 20.0184C60.787 20.0184 60.3781 19.8732 60.0835 19.5812C59.7842 19.2824 59.5995 18.8885 59.5617 18.4679C59.4773 17.7093 59.5037 16.9425 59.6401 16.1915C59.7801 15.3544 60.0162 14.536 60.3436 13.7526C60.6625 12.9799 61.0767 12.2498 61.5767 11.5792C62.0259 10.961 62.6098 10.4523 63.2845 10.0912C63.4856 9.97487 63.7168 9.92053 63.9489 9.93504C64.1933 9.95634 64.4339 10.0088 64.6649 10.0912C64.8881 10.1737 65.1058 10.2702 65.3167 10.38C65.5256 10.4841 65.7429 10.5882 65.9685 10.6923C65.991 10.6421 66.0084 10.5898 66.0202 10.5362C66.0357 10.4737 66.0623 10.4145 66.0986 10.3613C66.1848 10.1443 66.307 10.035 66.4637 10.035C66.7839 10.054 67.0954 10.1465 67.374 10.3051C67.6485 10.4378 67.9107 10.5945 68.1574 10.7735C68.1963 10.7984 68.2269 10.8343 68.2453 10.8765C68.2637 10.9188 68.2691 10.9655 68.2608 11.0108C68.2432 11.104 68.2081 11.193 68.1574 11.2731C68.0533 11.4708 67.9744 11.6806 67.9224 11.8977C67.6278 12.7814 67.363 13.6662 67.128 14.552C66.893 15.4378 66.6799 16.2706 66.4887 17.0502L66.437 17.2751C67.1504 16.6386 67.8049 15.9394 68.3924 15.1859C69.0269 14.3662 69.5374 13.4583 69.9076 12.491C69.9224 12.4448 69.9478 12.4027 69.9818 12.368C70.0158 12.3334 70.0575 12.307 70.1034 12.2912C70.187 12.2583 70.28 12.2583 70.3635 12.2912C70.4422 12.3239 70.51 12.378 70.5594 12.4473C70.5849 12.4863 70.5984 12.5319 70.5984 12.5784C70.5984 12.625 70.5849 12.6706 70.5594 12.7096C70.1012 13.9006 69.4496 15.0083 68.6306 15.9885C67.8833 16.8754 67.0545 17.6909 66.155 18.4242C65.9638 19.2403 65.7549 20.0491 65.5283 20.8506C65.3016 21.6521 65.0405 22.4442 64.7448 23.227C64.4824 23.9788 64.0602 24.6653 63.507 25.2396C62.9952 25.7486 62.2353 26.0031 61.2273 26.0031C60.9035 26.0011 60.5836 25.9331 60.2872 25.8033C59.9839 25.6775 59.7222 25.4691 59.532 25.2022C59.3445 24.9612 59.2191 24.6782 59.1669 24.3778C59.1138 24.0836 59.1181 23.7819 59.1794 23.4893C59.2425 23.1922 59.3481 22.9056 59.4928 22.6384C59.6364 22.3696 59.8161 22.1217 60.0271 21.9014C60.2584 21.6293 60.5214 21.3856 60.8105 21.1754C61.1051 20.9583 61.409 20.7507 61.7224 20.5508C62.0358 20.351 62.3491 20.1589 62.6735 19.9762C62.9978 19.7936 63.3002 19.6093 63.5728 19.4266C63.6763 19.0753 63.7812 18.7225 63.8862 18.3633C63.9912 18.0042 64.0962 17.6435 64.2011 17.2704ZM60.9688 24.8259C61.2334 24.8099 61.4834 24.699 61.6723 24.5136C61.9554 24.2419 62.1623 23.9012 62.2724 23.5252C62.4291 23.0912 62.5899 22.616 62.755 22.0997C62.92 21.5834 63.0892 21.0411 63.2626 20.4728C62.9665 20.6742 62.6359 20.8865 62.2724 21.1114C61.9078 21.3358 61.5634 21.5913 61.243 21.8749C60.9349 22.1421 60.6674 22.4524 60.4486 22.7961C60.2409 23.1245 60.1407 23.5092 60.1618 23.8968C60.1819 24.1202 60.2578 24.3349 60.3828 24.5214C60.4443 24.6196 60.5311 24.6996 60.6342 24.7531C60.7372 24.8067 60.8527 24.8318 60.9688 24.8259ZM65.0347 11.0858C64.5835 11.0858 64.1651 11.32 63.7812 11.7868C63.3648 12.3101 63.0226 12.8881 62.7644 13.5043C62.4642 14.1918 62.2241 14.9039 62.0467 15.6325C61.887 16.2598 61.7821 16.8998 61.7334 17.5452C61.7334 17.6118 61.7287 17.7117 61.7193 17.845C61.7105 17.9747 61.7152 18.105 61.7334 18.2337C61.7483 18.3512 61.7833 18.4653 61.8368 18.571C61.8557 18.6175 61.8882 18.6573 61.9301 18.6852C61.9721 18.713 62.0214 18.7277 62.0718 18.7271C62.2802 18.7271 62.4964 18.5897 62.7236 18.3149C62.9831 17.9875 63.2098 17.6355 63.4005 17.2641C63.6261 16.8394 63.8476 16.3643 64.0648 15.8386C64.2821 15.3129 64.4774 14.8044 64.6508 14.3131C64.8253 13.8218 64.982 13.3758 65.1209 12.975C65.2603 12.5738 65.3637 12.274 65.4342 12.0741C65.4687 11.957 65.5079 11.8446 65.5502 11.7369C65.5925 11.6291 65.6332 11.523 65.6677 11.4246C65.6031 11.3161 65.51 11.2271 65.3985 11.1674C65.287 11.1077 65.1612 11.0795 65.0347 11.0858Z" fill="white"/>
<path d="M68.0007 18.8208C68.0593 18.1204 68.155 17.4236 68.2875 16.7333C68.4306 15.9869 68.5961 15.2448 68.7842 14.5067C68.9722 13.7687 69.1863 13.0448 69.4266 12.3349C69.6445 11.665 69.9008 11.0081 70.1943 10.3675C70.282 10.1505 70.4027 10.0412 70.5594 10.0412C70.7059 10.0454 70.851 10.0706 70.9903 10.1162C71.1592 10.1679 71.3246 10.2305 71.4854 10.3035C71.6381 10.3728 71.7857 10.4526 71.9272 10.5424C72.0588 10.6252 72.167 10.6986 72.2531 10.7673C72.2845 10.7838 72.3118 10.8069 72.3332 10.8351C72.3546 10.8632 72.3695 10.8957 72.377 10.9302C72.3844 10.9647 72.3842 11.0004 72.3764 11.0349C72.3685 11.0693 72.3532 11.1016 72.3315 11.1295C72.2503 11.2607 72.1805 11.3986 72.1231 11.5417C71.8818 12.1423 71.6515 12.7845 71.4321 13.4684C71.2127 14.1523 71.0174 14.8362 70.8461 15.5201C71.0717 15.036 71.3282 14.5354 71.6154 14.018C71.9027 13.5007 72.2025 13.0005 72.5148 12.5176C72.8087 12.0596 73.1261 11.6172 73.4659 11.1919C73.7491 10.833 74.0706 10.5058 74.4248 10.2161C74.5601 10.0948 74.7381 10.0319 74.9199 10.0412C75.0612 10.0505 75.201 10.0756 75.3367 10.1162C75.538 10.17 75.7341 10.2416 75.9227 10.3301C76.1068 10.4112 76.2817 10.5117 76.4444 10.6299C76.5056 10.6644 76.5576 10.713 76.596 10.7717C76.6344 10.8304 76.6582 10.8974 76.6653 10.9671C76.6623 11.0637 76.6354 11.1581 76.587 11.2419C76.5353 11.3418 76.4867 11.4418 76.4444 11.5417C76.4021 11.6416 76.3535 11.7509 76.3003 11.868C76.0914 12.402 75.896 12.9646 75.7143 13.5559C75.5325 14.1471 75.3633 14.7347 75.2066 15.3187C75.0499 15.9026 74.9063 16.4657 74.7757 17.0081C74.6452 17.5504 74.5454 18.038 74.4765 18.4711C74.442 18.6538 74.4592 18.763 74.5282 18.7958C74.5971 18.8286 74.7021 18.7802 74.8415 18.6397C75.2639 18.2276 75.6396 17.7705 75.9618 17.2766C76.3106 16.7496 76.6282 16.2027 76.9129 15.6387C77.2002 15.0714 77.4613 14.5125 77.6963 13.9618C77.9314 13.4112 78.1324 12.9209 78.2996 12.491C78.3418 12.401 78.416 12.3298 78.5079 12.2912C78.5921 12.2583 78.6855 12.2583 78.7696 12.2912C78.8558 12.323 78.9268 12.386 78.9686 12.4676C78.9904 12.5098 79.0029 12.5561 79.0054 12.6035C79.0078 12.6509 79.0001 12.6982 78.9827 12.7424C78.8605 13.0266 78.7038 13.4018 78.5126 13.8681C78.3215 14.3366 78.0959 14.8409 77.8358 15.3811C77.5757 15.9213 77.2874 16.4741 76.9756 17.0206C76.6823 17.5399 76.3513 18.0372 75.9853 18.5085C75.6727 18.9168 75.3094 19.2841 74.9042 19.6015C74.5923 19.8613 74.2027 20.0106 73.7965 20.0262C73.3828 20.0406 72.9799 19.8926 72.6746 19.614C72.5403 19.5045 72.4347 19.3642 72.3668 19.2051C72.2988 19.0461 72.2706 18.8729 72.2845 18.7006C72.3534 18.1666 72.4448 17.5941 72.5587 16.9831C72.6725 16.3721 72.8067 15.7475 72.9613 15.1094C73.118 14.4755 73.2878 13.8546 73.4706 13.2467C73.6534 12.6388 73.8398 12.0663 74.0299 11.5292C73.699 11.8742 73.3981 12.2466 73.1306 12.6425C72.8235 13.0765 72.5237 13.5517 72.2312 14.068C71.9351 14.5864 71.6577 15.1188 71.3961 15.67C71.1344 16.2211 70.9009 16.7489 70.6926 17.2579C70.4842 17.7669 70.315 18.2369 70.1849 18.6631C70.0716 19.0125 69.9975 19.3733 69.964 19.7389C69.964 19.8716 69.9326 19.9513 69.8715 19.9762C69.801 20.0029 69.726 20.0156 69.6506 20.0137C69.4712 20.009 69.2942 19.9708 69.1289 19.9013C68.9397 19.8274 68.7603 19.731 68.5946 19.614C68.438 19.5045 68.2977 19.3737 68.1778 19.2252C68.0743 19.1144 68.0119 18.9718 68.0007 18.8208Z" fill="white"/>
<path d="M0.079834 6.29388H3.1336V17.6747H10.0449V20.2978H0.079834V6.29388Z" fill="white"/>
<path d="M18.1847 9.76484C18.9523 10.1197 19.6015 10.6865 20.0556 11.398C20.509 12.0823 20.8029 12.8591 20.9157 13.6714C21.002 14.3967 21.0329 15.1274 21.0082 15.8573H13.1411C13.185 16.9597 13.5615 17.7325 14.2708 18.176C14.7386 18.4581 15.2786 18.5986 15.8251 18.5804C16.3913 18.606 16.9478 18.4269 17.3919 18.076C17.6341 17.8655 17.8313 17.6085 17.9717 17.3203H20.8546C20.7794 17.973 20.4306 18.635 19.808 19.3064C18.8407 20.3754 17.4875 20.9099 15.7483 20.9099C14.3596 20.9275 13.0108 20.4477 11.9472 19.5578C10.8483 18.6574 10.2994 17.1907 10.3004 15.1578C10.3004 13.253 10.7961 11.7925 11.7873 10.7766C12.7786 9.76068 14.065 9.25271 15.6465 9.25271C16.5198 9.23834 17.3858 9.41307 18.1847 9.76484ZM13.9621 12.2474C13.5383 12.7218 13.2756 13.3174 13.2116 13.9493H18.0688C18.0187 13.1853 17.7685 12.606 17.3183 12.2115C16.8542 11.812 16.2564 11.6008 15.6433 11.6198C14.9215 11.6198 14.3611 11.829 13.9621 12.2474Z" fill="white"/>
<path d="M27.7597 9.83666C28.4941 10.135 29.1028 10.6765 29.4832 11.3699V9.83666H32.327V19.8732C32.327 21.2399 32.0847 22.2688 31.6 22.96C30.7644 24.1508 29.1683 24.7462 26.8118 24.7462C25.3859 24.7462 24.2228 24.4808 23.3224 23.9499C22.4215 23.4206 21.9232 22.4666 21.8276 21.4111H25.0005C25.082 21.7343 25.2151 22.1294 25.4 22.2714C25.7134 22.5244 26.2419 22.6503 26.9857 22.6493C28.0302 22.6493 28.7327 22.3162 29.0931 21.65C29.325 21.2222 29.4409 20.504 29.4409 19.4953V18.8161C29.2124 19.2119 28.9066 19.5581 28.5415 19.8341C27.9618 20.2505 27.2076 20.4613 26.279 20.4665C24.8469 20.4665 23.7026 19.9892 22.8461 19.0347C21.9895 18.0802 21.5613 16.7874 21.5613 15.1563C21.5613 13.5845 21.9739 12.2625 22.7991 11.1904C23.6243 10.1182 24.7926 9.58319 26.3041 9.58527C26.8008 9.57821 27.2944 9.66346 27.7597 9.83666ZM28.7531 17.4218C29.2221 16.9336 29.4566 16.1529 29.4566 15.0798C29.4566 14.0773 29.2336 13.3138 28.7875 12.7892C28.5689 12.532 28.2942 12.3279 27.9844 12.1926C27.6745 12.0573 27.3378 11.9943 26.9998 12.0085C25.9813 12.0085 25.2783 12.4644 24.8908 13.3763C24.6688 13.9484 24.5623 14.5586 24.5774 15.1719C24.57 15.736 24.6844 16.2951 24.9127 16.8113C25.3055 17.7044 26.0121 18.151 27.0327 18.151C27.3551 18.156 27.675 18.0933 27.9714 17.9668C28.2678 17.8404 28.5342 17.6531 28.7531 17.4171V17.4218Z" fill="white"/>
<path d="M38.2309 13.8525C38.6157 13.8191 38.9948 13.7372 39.359 13.6089C39.7643 13.4403 39.967 13.1801 39.967 12.8283C39.967 12.3942 39.8103 12.0944 39.4969 11.9289C39.1835 11.7634 38.7292 11.6807 38.1275 11.6807C37.4517 11.6807 36.9733 11.843 36.6923 12.1678C36.4731 12.4496 36.3345 12.7851 36.2912 13.139H33.5711C33.6307 12.2136 33.8955 11.4522 34.3655 10.8547C35.1155 9.91786 36.4019 9.44945 38.2246 9.44945C39.3184 9.42861 40.4016 9.66505 41.3865 10.1396C42.312 10.6007 42.7747 11.4688 42.7747 12.7439V17.6029C42.7747 17.9402 42.7826 18.3477 42.7951 18.8271C42.8155 19.1909 42.8719 19.436 42.9643 19.5656C43.0714 19.7079 43.2148 19.8189 43.3795 19.8872V20.2979H40.3038C40.2233 20.1038 40.1634 19.9018 40.1252 19.6952C40.0923 19.5078 40.0657 19.2939 40.0469 19.055C39.6499 19.4725 39.1932 19.8292 38.6916 20.1136C38.0582 20.4629 37.344 20.6406 36.6202 20.6289C35.6373 20.6289 34.8256 20.3551 34.1853 19.8076C33.545 19.2601 33.2249 18.4841 33.2249 17.4796C33.2249 16.1774 33.7398 15.2349 34.7698 14.6519C35.3359 14.3397 36.1674 14.1128 37.2642 13.9712L38.2309 13.8525ZM39.9544 15.1453C39.7811 15.2519 39.598 15.3419 39.4076 15.4139C39.1604 15.4975 38.9068 15.5607 38.6492 15.6028L38.0068 15.7199C37.5571 15.7768 37.1192 15.9043 36.7095 16.0978C36.4978 16.2107 36.3227 16.3814 36.2048 16.5899C36.0868 16.7984 36.0309 17.0361 36.0436 17.2751C36.0436 17.7435 36.1783 18.0885 36.451 18.2993C36.7355 18.5133 37.085 18.6235 37.4412 18.6116C38.0494 18.6142 38.6438 18.4311 39.1444 18.087C39.6666 17.7372 39.9367 17.0991 39.9544 16.1727V15.1453Z" fill="white"/>
<path d="M5.62338 0V5.60377H0L5.62338 0Z" fill="#F2A900"/>
<path d="M13.8116 0V8.29246C12.7428 8.55663 11.7706 9.11627 11.007 9.90692V2.8011H6.22656V0H13.8116Z" fill="white"/>
<path d="M35.9715 23.2161C36.1409 23.4433 36.2266 23.7217 36.2144 24.0046C36.226 24.3004 36.142 24.5921 35.9746 24.8368C35.8477 24.997 35.6679 25.1073 35.4672 25.1481C35.2665 25.189 35.0577 25.1578 34.8779 25.06C34.7942 24.9998 34.7224 24.9247 34.6663 24.8383V25.1084H34.1101V22.2027H34.6742V23.2379C34.7366 23.1462 34.8171 23.0681 34.9108 23.0084C35.0292 22.9388 35.1651 22.9047 35.3025 22.91C35.4304 22.9044 35.5578 22.9292 35.6741 22.9824C35.7905 23.0356 35.8924 23.1157 35.9715 23.2161ZM35.5015 24.5261C35.5902 24.3864 35.6329 24.2227 35.6237 24.0576C35.6276 23.929 35.6068 23.8007 35.5626 23.6798C35.5343 23.5928 35.4779 23.5176 35.4023 23.4659C35.3266 23.4142 35.2358 23.3889 35.1442 23.3941C35.0524 23.3883 34.9612 23.4125 34.8843 23.4629C34.8075 23.5133 34.7491 23.5872 34.718 23.6735C34.6746 23.7963 34.6544 23.926 34.6585 24.0561C34.6523 24.2178 34.696 24.3775 34.7838 24.5136C34.8255 24.574 34.8822 24.6226 34.9484 24.6546C35.0146 24.6867 35.088 24.701 35.1615 24.6962C35.2277 24.6986 35.2934 24.6842 35.3526 24.6545C35.4118 24.6247 35.4624 24.5805 35.4999 24.5261H35.5015Z" fill="white"/>
<path d="M36.5622 25.5222H36.6327C36.6848 25.5277 36.7373 25.5277 36.7894 25.5222C36.8347 25.5175 36.8782 25.5019 36.9163 25.4769C36.96 25.4399 36.9921 25.3911 37.0088 25.3364C37.0293 25.2959 37.042 25.252 37.0464 25.2068L36.2535 22.9522H36.8803L37.3503 24.5401L37.7984 22.9522H38.4001L37.659 25.0694C37.5819 25.337 37.4675 25.5925 37.319 25.8283C37.2359 25.9266 37.0699 25.975 36.8192 25.975H36.6985C36.6688 25.975 36.6217 25.975 36.5622 25.975V25.5222Z" fill="white"/>
<path d="M39.641 22.1981H40.2505V24.5854H41.7092V25.1085H39.641V22.1981Z" fill="white"/>
<path d="M43.3576 23.0006C43.5088 23.0677 43.6381 23.1759 43.7305 23.3129C43.8207 23.4465 43.8796 23.5985 43.9028 23.7579C43.9191 23.8993 43.9253 24.0418 43.9216 24.1841H42.3548C42.3494 24.2729 42.3674 24.3615 42.407 24.4412C42.4466 24.5209 42.5063 24.5889 42.5804 24.6385C42.6747 24.6953 42.7836 24.7235 42.8938 24.7197C43.0066 24.7245 43.1175 24.6897 43.2071 24.6213C43.2549 24.5796 43.2942 24.5293 43.3231 24.473H43.8997C43.8738 24.6218 43.8001 24.7582 43.6897 24.8618C43.5848 24.9688 43.4581 25.052 43.318 25.1059C43.178 25.1598 43.0279 25.183 42.8781 25.174C42.601 25.1782 42.3313 25.0847 42.1166 24.9102C41.8972 24.7322 41.7876 24.4417 41.7876 24.0483C41.777 23.8926 41.7979 23.7363 41.8491 23.5888C41.9002 23.4413 41.9805 23.3055 42.0853 23.1895C42.1867 23.0898 42.3076 23.0119 42.4405 22.9606C42.5733 22.9093 42.7154 22.8857 42.8577 22.8913C43.0302 22.8924 43.2005 22.9296 43.3576 23.0006ZM42.513 23.4862C42.4261 23.5779 42.3712 23.6951 42.3563 23.8203H43.3293C43.3281 23.7559 43.3136 23.6924 43.2866 23.6338C43.2597 23.5753 43.2209 23.5229 43.1727 23.4799C43.0793 23.4009 42.9598 23.3592 42.8374 23.3628C42.7778 23.3608 42.7184 23.3706 42.6627 23.3918C42.607 23.413 42.5561 23.4451 42.513 23.4862Z" fill="white"/>
<path d="M45.1453 22.9522C45.2887 23.0153 45.4059 23.1256 45.4775 23.2645V22.9522H46.029V24.9945C46.0425 25.2118 45.9936 25.4284 45.888 25.619C45.7261 25.8616 45.4169 25.9823 44.9605 25.9813C44.7252 25.9929 44.4913 25.9388 44.2852 25.8251C44.2008 25.7742 44.1303 25.7034 44.0798 25.6191C44.0292 25.5347 44.0002 25.4392 43.9953 25.3411H44.6095C44.6194 25.3957 44.6469 25.4456 44.6878 25.4832C44.78 25.5447 44.891 25.5718 45.0012 25.5597C45.0816 25.5695 45.1631 25.5555 45.2356 25.5194C45.308 25.4833 45.3682 25.4267 45.4086 25.3567C45.463 25.2171 45.486 25.0674 45.4759 24.918V24.7806C45.4325 24.8603 45.3734 24.9304 45.302 24.9867C45.1744 25.0775 45.02 25.1231 44.8633 25.1163C44.7376 25.1209 44.6125 25.097 44.4974 25.0465C44.3823 24.9959 44.2803 24.9199 44.199 24.8243C44.0247 24.6022 43.9363 24.3252 43.9498 24.0436C43.9402 23.7558 44.0243 23.4726 44.1896 23.2364C44.2665 23.1301 44.3689 23.0446 44.4873 22.9876C44.6058 22.9306 44.7366 22.9039 44.868 22.91C44.9623 22.9065 45.0564 22.9208 45.1453 22.9522ZM45.3381 24.4948C45.4391 24.3604 45.4875 24.1939 45.4744 24.0264C45.4858 23.8601 45.4399 23.6948 45.3443 23.558C45.3028 23.5069 45.2499 23.4661 45.1898 23.439C45.1297 23.4119 45.064 23.3992 44.9981 23.4019C44.9088 23.3973 44.8205 23.422 44.7466 23.4722C44.6727 23.5224 44.6174 23.5953 44.5891 23.6798C44.5471 23.7969 44.5274 23.9208 44.5311 24.0452C44.5288 24.1596 44.5501 24.2734 44.5938 24.3793C44.6237 24.4626 44.6799 24.5341 44.7538 24.583C44.8278 24.632 44.9157 24.6558 45.0043 24.651C45.0678 24.6514 45.1306 24.638 45.1883 24.6115C45.246 24.5851 45.2971 24.5463 45.3381 24.4979V24.4948Z" fill="white"/>
<path d="M47.2809 23.8C47.358 23.7938 47.434 23.777 47.5065 23.7501C47.5408 23.7402 47.5711 23.7198 47.593 23.6918C47.615 23.6637 47.6275 23.6295 47.6287 23.5939C47.6326 23.5577 47.6258 23.5211 47.6091 23.4886C47.5924 23.4562 47.5665 23.4293 47.5347 23.4112C47.4487 23.3727 47.3546 23.3555 47.2605 23.3613C47.2084 23.3559 47.1558 23.362 47.1063 23.379C47.0567 23.3959 47.0115 23.4235 46.9738 23.4597C46.9294 23.5166 46.9018 23.5847 46.8939 23.6564H46.3486C46.3507 23.4878 46.4054 23.3241 46.5053 23.188C46.6547 22.9985 46.9116 22.9038 47.2762 22.9038C47.4933 22.9006 47.7081 22.9488 47.9029 23.0443C47.9965 23.0953 48.0728 23.1728 48.1222 23.267C48.1716 23.3613 48.1918 23.468 48.1803 23.5736V24.5604C48.1803 24.6291 48.1803 24.7166 48.1803 24.8087C48.178 24.8628 48.1898 24.9166 48.2147 24.9648C48.2362 24.9932 48.2648 25.0153 48.2978 25.0288V25.1116H47.6836C47.6672 25.0724 47.6551 25.0316 47.6475 24.9898C47.64 24.9464 47.6348 24.9026 47.6319 24.8586C47.5527 24.9434 47.4613 25.016 47.3608 25.0741C47.2343 25.1453 47.0909 25.1815 46.9456 25.1787C46.7679 25.1857 46.5941 25.1261 46.4583 25.0117C46.3939 24.9524 46.3433 24.8797 46.3103 24.7987C46.2772 24.7177 46.2625 24.6305 46.2671 24.5432C46.2593 24.4277 46.2846 24.3124 46.3401 24.2106C46.3956 24.1089 46.479 24.025 46.5805 23.9687C46.7366 23.8908 46.9063 23.8437 47.0803 23.8297L47.2809 23.8ZM47.6256 24.0623C47.5912 24.0836 47.555 24.1019 47.5175 24.117C47.4664 24.1342 47.414 24.1473 47.3608 24.156L47.2323 24.1794C47.1421 24.191 47.0543 24.2168 46.9722 24.256C46.9296 24.2792 46.8945 24.3139 46.871 24.3562C46.8474 24.3985 46.8363 24.4466 46.839 24.4948C46.8352 24.5334 46.8405 24.5723 46.8547 24.6084C46.8689 24.6445 46.8914 24.6768 46.9205 24.7025C46.9769 24.7461 47.0465 24.7693 47.1179 24.7681C47.2403 24.7686 47.3597 24.7309 47.4595 24.6603C47.5154 24.6132 47.5589 24.5531 47.5862 24.4853C47.6136 24.4176 47.6238 24.3442 47.6162 24.2716L47.6256 24.0623Z" fill="white"/>
<path d="M48.5986 22.1981H49.2081V24.5854H50.6669V25.1085H48.5986V22.1981Z" fill="white"/>
<path d="M51.7573 23.8C51.8345 23.7938 51.9104 23.777 51.983 23.7501C52.0171 23.7401 52.0472 23.7197 52.0688 23.6916C52.0905 23.6635 52.1027 23.6293 52.1036 23.5939C52.1078 23.5578 52.1013 23.5212 52.0849 23.4888C52.0685 23.4563 52.0428 23.4293 52.0112 23.4112C51.9252 23.3727 51.8311 23.3555 51.737 23.3613C51.6849 23.3558 51.6322 23.3618 51.5827 23.3788C51.5331 23.3958 51.4879 23.4234 51.4502 23.4596C51.406 23.5168 51.3779 23.5847 51.3688 23.6564H50.8235C50.8271 23.488 50.8817 23.3247 50.9802 23.188C51.1306 22.9985 51.3881 22.9038 51.7526 22.9038C51.9697 22.9008 52.1845 22.9489 52.3794 23.0443C52.4727 23.0955 52.5487 23.1731 52.5977 23.2673C52.6468 23.3615 52.6668 23.4681 52.6551 23.5736V24.5604C52.6551 24.6291 52.6551 24.7119 52.6551 24.8087C52.6528 24.8626 52.6641 24.9163 52.688 24.9648C52.7102 24.9924 52.7387 25.0144 52.7711 25.0288V25.1116H52.1757C52.1605 25.0721 52.1489 25.0313 52.1412 24.9898C52.1329 24.9465 52.1277 24.9027 52.1255 24.8586C52.0464 24.9434 51.955 25.016 51.8545 25.0741C51.7279 25.1451 51.5845 25.1812 51.4393 25.1787C51.2616 25.186 51.0876 25.1263 50.952 25.0116C50.887 24.9527 50.836 24.8801 50.8027 24.7991C50.7693 24.7181 50.7545 24.6307 50.7593 24.5432C50.7516 24.4277 50.777 24.3124 50.8325 24.2107C50.888 24.109 50.9712 24.0251 51.0726 23.9686C51.2283 23.891 51.3974 23.8438 51.5709 23.8297L51.7573 23.8ZM52.102 24.0623C52.0673 24.0839 52.0306 24.1022 51.9924 24.117C51.9414 24.1345 51.889 24.1476 51.8357 24.156L51.7056 24.1794C51.6159 24.1909 51.5286 24.2167 51.4471 24.2559C51.4045 24.2792 51.3694 24.3139 51.3459 24.3562C51.3223 24.3985 51.3112 24.4465 51.3139 24.4948C51.3101 24.5334 51.3154 24.5723 51.3296 24.6084C51.3438 24.6445 51.3663 24.6768 51.3954 24.7025C51.4514 24.7468 51.5213 24.77 51.5928 24.7681C51.7151 24.7684 51.8345 24.7307 51.9344 24.6603C51.9903 24.6132 52.0338 24.5531 52.0611 24.4853C52.0884 24.4176 52.0987 24.3442 52.0911 24.2716L52.102 24.0623Z" fill="white"/>
<path d="M54.2283 22.9069H54.2769V23.4831C54.2409 23.4831 54.2095 23.4831 54.1813 23.4831H54.114C54.0245 23.4722 53.9339 23.4872 53.8528 23.5262C53.7717 23.5653 53.7035 23.6267 53.6564 23.7032C53.6059 23.8247 53.5839 23.9561 53.5922 24.0873V25.1147H53.0234V22.9522H53.5624V23.3269C53.6221 23.2177 53.6988 23.1187 53.7896 23.0334C53.9063 22.9407 54.0527 22.8936 54.2017 22.9007L54.2283 22.9069Z" fill="white"/>
<path d="M55.0587 22.7008H54.4852V22.1809H55.0587V22.7008ZM54.4852 22.9522H55.0587V25.1038H54.4852V22.9522Z" fill="white"/>
<path d="M57.2774 24.8461C57.0549 25.0613 56.757 25.1817 56.447 25.1817C56.1369 25.1817 55.839 25.0613 55.6165 24.8461C55.4386 24.6138 55.3423 24.3296 55.3423 24.0373C55.3423 23.7451 55.4386 23.4609 55.6165 23.2286C55.8375 23.0104 56.1359 22.888 56.447 22.888C56.758 22.888 57.0564 23.0104 57.2774 23.2286C57.4543 23.4613 57.55 23.7453 57.55 24.0373C57.55 24.3293 57.4543 24.6134 57.2774 24.8461ZM56.8246 24.5339C56.9118 24.382 56.9577 24.21 56.9577 24.035C56.9577 23.86 56.9118 23.688 56.8246 23.5361C56.7804 23.4785 56.7228 23.4324 56.6567 23.402C56.5906 23.3715 56.5181 23.3575 56.4454 23.3613C56.3722 23.3575 56.2993 23.3715 56.2327 23.402C56.1661 23.4324 56.108 23.4784 56.0631 23.5361C55.9758 23.688 55.9299 23.86 55.9299 24.035C55.9299 24.21 55.9758 24.382 56.0631 24.5339C56.108 24.5916 56.1661 24.6376 56.2327 24.668C56.2993 24.6985 56.3722 24.7124 56.4454 24.7087C56.518 24.7126 56.5904 24.6989 56.6565 24.6687C56.7225 24.6385 56.7802 24.5928 56.8246 24.5354V24.5339Z" fill="white"/>
</g>
<defs>
<clipPath id="clip0_909_398">
<rect width="79" height="26" fill="white"/>
</clipPath>
</defs>
</svg>
