<svg width="26" height="24" viewBox="0 0 26 24" fill="none" xmlns="http://www.w3.org/2000/svg">
<path d="M6.594 0C5.175 0 3.691 0.917 2.375 2.625C1.059 4.333 0.0410006 6.907 0.0940006 10.313C0.0940006 11.939 0.613001 13.743 1.594 15.25C1.738 15.472 1.987 15.605 2.156 15.813C1.468 16.644 0.281001 18.219 0.281001 18.219C0.174504 18.3097 0.0882358 18.4218 0.0277729 18.548C-0.03269 18.6742 -0.0660018 18.8116 -0.0700091 18.9515C-0.0740163 19.0914 -0.0486297 19.2305 0.00450945 19.3599C0.0576486 19.4894 0.137358 19.6062 0.238484 19.7029C0.33961 19.7996 0.459902 19.874 0.591583 19.9213C0.723265 19.9686 0.863405 19.9877 1.00294 19.9775C1.14248 19.9672 1.27831 19.9278 1.40166 19.8617C1.525 19.7957 1.63311 19.7045 1.719 19.594C1.719 19.594 2.922 17.984 3.562 17.219C4.3 17.688 5.144 18 6.094 18C7.802 18 9.406 17.183 10.781 16.062C10.976 15.904 11.094 15.671 11.281 15.5C11.722 15.809 12.241 16 12.812 16C13.771 16 14.585 15.543 15.282 15C15.978 14.457 16.575 13.803 17.125 13.156C17.494 12.722 17.764 12.362 18.063 12C18.026 12.471 17.996 12.935 18 13.375C18.002 13.605 18.012 13.812 18.094 14.094C18.134 14.234 18.17 14.428 18.344 14.625C18.518 14.822 18.872 15 19.187 15C20.004 15 20.612 14.542 21.062 14.094C21.512 13.645 21.873 13.129 22.282 12.656C23.096 11.711 23.88 11 25 11C25.2652 11 25.5196 10.8946 25.7071 10.7071C25.8946 10.5196 26 10.2652 26 10C26 9.73478 25.8946 9.48043 25.7071 9.29289C25.5196 9.10536 25.2652 9 25 9C23.02 9 21.69 10.29 20.781 11.344C20.499 11.671 20.287 11.894 20.063 12.156C20.065 12.12 20.06 12.099 20.063 12.062C20.101 11.554 20.163 11.059 20.125 10.562C20.1149 10.2818 20.0511 10.0061 19.937 9.75C19.797 9.444 19.329 9 18.812 9C18.271 9 17.966 9.238 17.719 9.438C17.472 9.638 17.256 9.87 17.031 10.125C16.581 10.635 16.106 11.241 15.594 11.844C15.081 12.447 14.538 13.043 14.031 13.438C13.525 13.832 13.104 14 12.812 14C12.746 14 12.712 13.887 12.656 13.875C13.183 13.242 13.831 12.698 14.25 12.031C15.163 10.575 15.798 9.134 16 7.875C16.101 7.245 16.137 6.633 15.844 6.031C15.55 5.43 14.784 5 14.094 5C12.749 5 11.618 5.87 10.844 7.031C10.069 8.193 9.594 9.717 9.594 11.406C9.594 12.283 9.869 13.02 10.156 13.75C9.918 13.98 9.746 14.3 9.5 14.5C8.344 15.442 7.135 16 6.094 16C5.641 16 5.237 15.802 4.844 15.594C5.311 14.972 5.347 15.054 5.844 14.312C7.892 11.253 10 7.343 10 3.595C10 3.15 9.97 2.345 9.5 1.532C9.03 0.718 7.982 0 6.594 0ZM6.594 2C7.406 2 7.57 2.22 7.75 2.531C7.93 2.843 8 3.339 8 3.594C8 6.546 6.108 10.303 4.156 13.219C3.757 13.815 3.757 13.733 3.375 14.25C3.348 14.21 3.308 14.197 3.281 14.156C2.537 13.013 2.094 11.486 2.094 10.312C2.09415 10.302 2.09415 10.292 2.094 10.282C2.047 7.287 2.934 5.217 3.969 3.875C5.003 2.533 6.312 2 6.594 2ZM14.031 7.031C14.045 7.105 14.083 7.237 14.031 7.562C13.902 8.366 13.374 9.675 12.562 10.969C12.339 11.324 11.979 11.589 11.719 11.938C11.695 11.73 11.594 11.634 11.594 11.406C11.594 10.096 11.974 8.913 12.5 8.125C13.002 7.371 13.583 7.06 14.031 7.031ZM6.03497e-07 22V24H26V22H6.03497e-07Z" fill="#1B365D"/>
</svg>
