<svg width="24" height="24" viewBox="0 0 24 24" fill="none" xmlns="http://www.w3.org/2000/svg">
<path d="M5 4V2H7" stroke="#1B365D" stroke-width="1.5" stroke-linecap="round" stroke-linejoin="round"/>
<path d="M5 10V12H7" stroke="#1B365D" stroke-width="1.5" stroke-linecap="round" stroke-linejoin="round"/>
<path d="M19 4V2H17" stroke="#1B365D" stroke-width="1.5" stroke-linecap="round" stroke-linejoin="round"/>
<path d="M19 10V12H17" stroke="#1B365D" stroke-width="1.5" stroke-linecap="round" stroke-linejoin="round"/>
<path d="M15.25 7C15.25 9.51203 13.6474 11.25 12 11.25C10.3526 11.25 8.75 9.51203 8.75 7C8.75 4.48797 10.3526 2.75 12 2.75C13.6474 2.75 15.25 4.48797 15.25 7Z" stroke="#1B365D" stroke-width="1.5"/>
<path d="M6.5 14C5.66667 14.1667 4 15.2 4 18C4 18.4 4 19.8333 4 20.5H8" stroke="#1B365D" stroke-width="1.5" stroke-linecap="round" stroke-linejoin="round"/>
<path d="M17.5 14C18.3333 14.1667 20 15.2 20 18C20 18.4 20 19.8333 20 20.5H16" stroke="#1B365D" stroke-width="1.5" stroke-linecap="round" stroke-linejoin="round"/>
<path d="M10.5 17L11.5 18L13.5 16" stroke="#1B365D" stroke-linecap="round" stroke-linejoin="round"/>
<circle cx="12" cy="17" r="3" stroke="#1B365D"/>
</svg>
