<svg width="18" height="22" viewBox="0 0 18 22" fill="none" xmlns="http://www.w3.org/2000/svg">
<path d="M10.8461 0.15387L17.3077 6.61541V19.5385C17.3077 20.1097 17.0808 20.6576 16.6768 21.0615C16.2729 21.4654 15.7251 21.6923 15.1538 21.6923H2.23075C1.65952 21.6923 1.11168 21.4654 0.707751 21.0615C0.303827 20.6576 0.0769043 20.1097 0.0769043 19.5385V2.30772C0.0769043 1.73648 0.303827 1.18864 0.707751 0.784716C1.11168 0.380792 1.65952 0.15387 2.23075 0.15387H10.8461ZM15.1538 19.5385V7.69233H9.76921V2.30772H2.23075V19.5385H15.1538ZM8.69229 10.9231L13 15.2308H10.3077V18.4616H7.0769V15.2308H4.3846L8.69229 10.9231Z" fill="#096299"/>
</svg>
