<svg width="12" height="12" viewBox="0 0 12 12" fill="none" xmlns="http://www.w3.org/2000/svg">
<path d="M12 0.285375C12 0.128419 11.8754 0 11.7232 0L9.43945 0.0107022L6 4.23781L2.56401 0.0142696L0.276817 0.0035674C0.124567 0.0035674 0 0.128419 0 0.288942C0 0.356718 0.0242212 0.420928 0.0657437 0.474436L4.56747 6.00357L0.0657437 11.5291C0.0239318 11.5814 0.000732291 11.6469 0 11.7146C0 11.8716 0.124567 12 0.276817 12L2.56401 11.9893L6 7.76219L9.43599 11.9857L11.7197 11.9964C11.872 11.9964 11.9965 11.8716 11.9965 11.7111C11.9965 11.6433 11.9723 11.5791 11.9308 11.5256L7.43599 6L11.9377 0.470868C11.9792 0.420928 12 0.353151 12 0.285375Z" fill="#1B365D"/>
</svg>
